# xmcd CD database file
#
# Track frame offsets:
#	150
#	23130
#	45331
#	60260
#	84603
#	103131
#	121757
#	142716
#	164679
#	184626
#	206815
#	229098
#
# Disc length: 3277 seconds
#
# Revision: 0
# Processed by: cddbd v1.5.2PL0 Copyright (c) Steve Scherf et al.
# Submitted via: CDex 1.70beta2
#
DISCID=950ccb0c
DTITLE=Various Artist - Simply Salsa 2
DYEAR=2009
DGENRE=Salsa
TTITLE0=algo mas
TTITLE1=sin sentimientos
TTITLE2=historias de danzon y de arrabal
TTITLE3=pagina de amor
TTITLE4=me gustas
TTITLE5=descontrolado
TTITLE6=fabricando fantasias
TTITLE7=no me acostumbro
TTITLE8=rosas
TTITLE9=te conozco
TTITLE10=como yo te amo
TTITLE11=el velorio
EXTD=YEAR: 2009
EXTT0=
EXTT1=
EXTT2=
EXTT3=
EXTT4=
EXTT5=
EXTT6=
EXTT7=
EXTT8=
EXTT9=
EXTT10=
EXTT11=
PLAYORDER=
